<svg width="257" height="17" viewBox="0 0 257 17" fill="none" xmlns="http://www.w3.org/2000/svg">
<path d="M35.3906 5.4163L35.961 5.34215H34.7128L35.2401 5.26801C35.8124 5.23899 36.6176 5.26801 36.9866 5.21159C37.0028 5.17452 36.3695 5.19547 36.1842 5.17613C36.0166 5.15516 35.875 5.13304 35.7611 5.11004C36.0728 5.09431 36.4216 5.08335 36.7867 5.0778C37.2812 5.07398 37.7565 5.06003 38.1602 5.03751C38.9942 5.00043 39.7894 4.95369 40.6915 4.90855L40.3122 4.84085L41.4919 4.80056C41.621 4.80056 41.758 4.78283 41.8864 4.78444C42.9561 4.79894 43.3473 4.74092 43.8017 4.68611C43.8933 4.67327 44.0071 4.66134 44.14 4.65065C45.4976 4.59746 46.797 4.62808 48.0516 4.61358C48.2908 4.61405 48.524 4.61845 48.7347 4.62647C49.1886 4.63978 49.6837 4.64425 50.1746 4.63946C50.6654 4.63468 51.1364 4.62079 51.5445 4.59907C52.4475 4.55179 53.4908 4.52237 54.5733 4.51364C54.8966 4.51248 55.2153 4.50629 55.509 4.49546C55.8028 4.48464 56.0652 4.46942 56.2795 4.45077L57.0278 4.46206C57.3141 4.42713 57.6903 4.39668 58.1337 4.37258C58.577 4.34847 59.0783 4.3312 59.6071 4.32182C60.1709 4.31215 60.7375 4.29603 61.3228 4.28636C62.5289 4.26339 63.6899 4.22755 64.7696 4.17998C66.3883 4.12033 67.9654 4.05747 69.6034 4.00267C70.6244 3.96437 71.6136 3.92129 72.5651 3.87371C73.7086 3.82044 74.9645 3.78277 76.2724 3.76249C76.2527 3.80763 75.6861 3.82375 75.3125 3.84148C74.1049 3.89628 72.8584 3.94141 71.6099 3.99138C71.0482 4.01471 70.505 4.04055 69.9834 4.06875C69.1077 4.11198 68.1756 4.14819 67.203 4.17675C65.676 4.23168 64.2083 4.29584 62.8149 4.36857C62.7072 4.37586 62.6099 4.38396 62.5246 4.39275C62.5094 4.39733 62.5101 4.4021 62.5266 4.40658C62.5431 4.41106 62.5748 4.41511 62.6188 4.41835C62.6627 4.42159 62.7174 4.42389 62.7776 4.42506C62.8377 4.42622 62.9014 4.42619 62.9625 4.42498C63.5436 4.42498 64.1677 4.42498 64.694 4.40242C64.7145 4.4017 64.7367 4.40133 64.7591 4.40133C64.7814 4.40133 64.8033 4.4017 64.8232 4.40242C66.0499 4.40242 67.0014 4.34278 67.9215 4.3057C69.4589 4.25435 70.9283 4.19171 72.3075 4.11872C72.5164 4.10811 72.7451 4.09996 72.9852 4.09454C74.4574 4.04696 75.8129 3.98037 76.988 3.89789C77.4749 3.86727 77.9208 3.83181 78.4493 3.8044C78.7741 3.78683 79.0503 3.76463 79.2612 3.73915C79.472 3.71366 79.6132 3.68542 79.6763 3.65611C79.9118 3.65771 80.1495 3.65771 80.3864 3.65611C80.5277 3.65489 80.6594 3.64973 80.7548 3.64165C80.8502 3.63357 80.9022 3.62319 80.9005 3.61259C80.9139 3.58196 80.5903 3.58357 80.3098 3.58518C80.4661 3.57072 80.6453 3.55773 80.8432 3.5465C81.9571 3.48235 83.1658 3.42823 84.4432 3.38531C85.4438 3.36113 86.2023 3.29988 87.2639 3.28376C87.393 3.28376 87.4854 3.26925 87.5966 3.26119C87.8807 3.23424 88.2461 3.21267 88.6611 3.19835C89.0761 3.18402 89.5283 3.17738 89.9783 3.17899C90.4489 3.08711 91.6693 3.10162 92.5248 3.06454C92.8177 3.08388 92.5122 3.09356 92.508 3.10323C92.5037 3.1129 92.5079 3.10323 92.4003 3.10323C91.5969 3.1933 90.4451 3.26319 89.1063 3.3031C88.8637 3.3157 88.6345 3.32972 88.4208 3.34501C88.0968 3.36777 87.7247 3.38631 87.3208 3.39982C86.8818 3.41706 86.4854 3.44 86.1506 3.46752C85.9524 3.47755 85.7896 3.49108 85.6774 3.50686C85.5652 3.52264 85.5071 3.54015 85.5086 3.55778C85.6532 3.56399 85.8113 3.56834 85.9764 3.57068C86.8261 3.56973 87.6508 3.545 88.288 3.50137C89.3971 3.42561 90.754 3.37403 91.9458 3.30633C92.7529 3.26221 93.6211 3.2249 94.5339 3.1951C94.5339 3.1951 94.5261 3.21284 94.5254 3.21445C94.6384 3.21614 94.7554 3.21614 94.8698 3.21445C94.8698 3.21445 94.8698 3.21445 94.8733 3.20639C94.8173 3.20171 94.7441 3.19835 94.6623 3.19672H94.3825C94.5603 3.18382 94.7195 3.16448 94.9146 3.16126C95.3241 3.15285 95.7093 3.13837 96.0471 3.1187C96.3848 3.09903 96.6682 3.07458 96.8799 3.04681C97.263 3.00548 97.7548 2.97034 98.3239 2.94365C98.756 2.91905 99.1699 2.89268 99.5636 2.86467C99.5636 2.86467 99.5721 2.84532 99.7527 2.82598C99.5617 2.82342 99.365 2.82342 99.1717 2.82598C98.3433 2.85016 97.5142 2.87595 96.7052 2.90496C96.4102 2.91878 96.136 2.935 95.8878 2.95332C95.192 2.99561 94.3954 3.02739 93.5441 3.04681C93.5441 3.04681 93.3719 3.04681 93.2859 3.04681C93.4806 2.99523 94.3206 2.99362 94.6193 2.9501C94.8173 2.94042 95.168 2.92592 95.1493 2.91947C95.1132 2.91144 95.1016 2.90285 95.1153 2.89432C95.129 2.88579 95.1676 2.87753 95.2284 2.87014C95.2893 2.86274 95.3708 2.85639 95.4671 2.85155C95.5634 2.8467 95.6723 2.84347 95.7857 2.8421C96.7207 2.81814 97.5868 2.78029 98.3308 2.73088C98.6169 2.71637 98.944 2.7067 99.2294 2.6938C99.4051 2.68692 99.5625 2.67762 99.6933 2.6664C100.349 2.59961 101.269 2.54984 102.316 2.52455C102.819 2.50896 103.282 2.48655 103.68 2.45847C103.966 2.44235 104.11 2.45847 104.325 2.45847L105.217 2.4359L104.126 2.52133C104.426 2.57291 104.636 2.5842 105.031 2.56808C105.606 2.54476 106.164 2.51893 106.7 2.4907C107.097 2.46975 107.411 2.43912 107.972 2.4359C108.071 2.435 108.164 2.43158 108.235 2.42623C108.843 2.37214 109.597 2.32816 110.443 2.29728C110.836 2.23441 111.611 2.23603 112.322 2.2328C112.513 2.19089 112.101 2.19734 111.845 2.19089C112.417 2.16349 112.99 2.13286 113.582 2.10707C113.758 2.09634 113.963 2.08872 114.181 2.08481C114.399 2.08089 114.625 2.08079 114.84 2.08451C114.948 2.08856 115.073 2.08931 115.19 2.08661C115.308 2.08391 115.408 2.07796 115.471 2.07C115.763 2.04099 116.264 2.02809 116.495 1.99263C116.579 1.98284 116.707 1.97553 116.854 1.97198C117.002 1.96844 117.16 1.9689 117.299 1.97329C117.161 1.98401 117.04 1.99592 116.94 2.00875C116.576 2.05227 116.756 2.08451 117.301 2.11674C118.051 2.07484 118.822 2.03615 119.509 1.9894C119.889 1.95966 120.369 1.93817 120.894 1.92735C121.42 1.91653 121.97 1.91681 122.484 1.92815C122.671 1.93307 122.878 1.93249 123.064 1.92652C123.25 1.92054 123.402 1.90962 123.488 1.89591C123.538 1.88268 123.544 1.86885 123.506 1.85562H122.99C122.99 1.85562 122.996 1.84111 122.997 1.83789L123.703 1.7992C124.077 1.77986 124.472 1.76374 124.824 1.7444C125.337 1.7101 125.934 1.68378 126.58 1.66702C127.177 1.65319 127.76 1.63595 128.324 1.61544C128.871 1.5961 129.235 1.54936 129.744 1.51873C130.128 1.49558 130.558 1.47708 131.016 1.46393C131.808 1.44166 132.52 1.40509 133.086 1.35754C133.856 1.41718 134.201 1.41557 134.807 1.35754L135.097 1.33497L135.197 1.35109L135.42 1.33497C135.84 1.30918 136.26 1.28339 136.701 1.25921C137.325 1.23635 138.011 1.22579 138.694 1.22859C138.824 1.22859 139.012 1.24148 139.136 1.25277C139.26 1.26405 139.544 1.30274 139.749 1.32691C139.584 1.36076 139.397 1.39461 139.274 1.43008C139.263 1.43559 139.27 1.44117 139.294 1.44636C139.317 1.45156 139.357 1.45622 139.41 1.45999C139.463 1.46375 139.527 1.4665 139.598 1.46803C139.668 1.46955 139.743 1.4698 139.816 1.46876C139.959 1.46727 140.099 1.464 140.229 1.45909C140.866 1.42943 141.471 1.39601 142.038 1.35915C142.238 1.33804 142.524 1.32229 142.851 1.31441C143.178 1.30652 143.527 1.30695 143.843 1.31563C144.581 1.26271 145.458 1.22201 146.413 1.19635C147.388 1.13187 148.608 1.09802 149.503 1.02065C149.496 1.03677 149.616 1.05773 149.763 1.06579C149.995 1.0776 150.253 1.08632 150.527 1.09158L152.513 1.0271C152.604 1.04184 152.713 1.05587 152.839 1.06901C152.928 1.07997 153.071 1.08778 153.238 1.09079C153.406 1.0938 153.584 1.09177 153.736 1.08513C154.13 1.07062 154.444 1.04161 154.936 1.04806C154.25 1.11338 153.284 1.15908 152.211 1.17701C151.209 1.20021 150.256 1.23503 149.39 1.28017C149.104 1.29468 148.729 1.31563 148.655 1.33659C148.501 1.393 147.976 1.41234 147.364 1.43491C146.88 1.45 146.447 1.47336 146.101 1.50307C145.755 1.53277 145.506 1.56797 145.374 1.60577C145.36 1.6364 145.481 1.65574 145.913 1.65091L147.71 1.62834C147.957 1.60664 148.189 1.58404 148.406 1.56064C148.776 1.52537 149.247 1.49669 149.782 1.47684C150.317 1.45699 150.902 1.44651 151.491 1.44619C151.792 1.44619 152.094 1.44619 152.295 1.42846C152.47 1.411 152.629 1.39269 152.771 1.37366C152.795 1.36458 152.799 1.35533 152.783 1.34626C152.898 1.34495 153.014 1.34495 153.127 1.34626C154.059 1.38172 154.72 1.34626 155.302 1.29468C155.459 1.28017 155.574 1.26405 155.731 1.24793C155.889 1.23181 155.938 1.21892 156.09 1.21408C157.311 1.17862 157.572 1.07385 158.583 1.02549C158.629 1.01956 158.655 1.01291 158.658 1.00615C158.661 0.999385 158.641 0.992734 158.6 0.986803C158.522 0.983558 158.434 0.981857 158.344 0.981857C158.254 0.981857 158.164 0.983558 158.084 0.986803C157.609 0.999498 157.203 1.024 156.934 1.05611C156.739 1.07364 156.53 1.09033 156.31 1.10608L155.18 1.03194C156.169 0.993189 157.093 0.945541 157.932 0.890089C158.111 0.87397 158.436 0.869134 158.699 0.857851L160.631 0.770809C161.027 0.751466 161.345 0.714392 161.94 0.732123C161.94 0.732123 162.31 0.720839 162.401 0.709556C162.492 0.698273 162.885 0.637021 163.117 0.598335C163.422 0.590276 163.853 0.588664 164.032 0.572545C164.341 0.539725 164.602 0.504591 164.81 0.467771L166.004 0.443593C166.033 0.475213 166.019 0.507075 165.962 0.538695C165.897 0.569738 165.931 0.601255 166.06 0.630671C166.189 0.660087 166.411 0.686566 166.706 0.707945L168.029 0.833672C168.228 0.836422 168.435 0.834493 168.622 0.828148C168.81 0.821804 168.969 0.811351 169.077 0.798211C169.55 0.751466 170.086 0.706332 170.558 0.659587C171.226 0.659587 171.113 0.72084 171.619 0.743406H173.19C173.487 0.803046 173.785 0.859463 173.114 0.919103C172.98 0.930387 173.099 0.952953 172.984 0.970684C173.575 0.996474 174.184 0.981967 174.763 0.986803C175.001 0.999431 175.206 1.01527 175.367 1.03355C175.553 1.06393 175.894 1.08722 176.316 1.09837C176.738 1.10953 177.207 1.10767 177.622 1.09319C178.327 1.07796 179.058 1.07196 179.782 1.07546C180.029 1.07689 180.28 1.07432 180.517 1.06792C180.753 1.06153 180.971 1.05146 181.154 1.03838C181.813 0.998068 182.355 0.948089 182.746 0.891701C183.137 0.84079 183.688 0.797576 184.35 0.765973C185.534 0.765973 185.845 0.841732 186.602 0.883641L185.431 0.952953C185.417 0.985191 185.531 1.01904 185.047 1.04322C184.563 1.0674 184.836 1.08352 185.02 1.10447C185.09 1.11623 185.212 1.1257 185.366 1.13128C185.521 1.13686 185.698 1.13821 185.868 1.1351L186.907 1.12059C187.277 1.11641 187.627 1.10472 187.92 1.08681C188.212 1.06889 188.436 1.04544 188.566 1.01904C188.719 0.992456 188.941 0.968319 189.221 0.948118C189.57 0.914895 189.847 0.877895 190.043 0.838508L191.499 0.80627C191.533 0.775109 191.709 0.745418 191.997 0.722215C192.286 0.699013 192.669 0.683723 193.083 0.67893L194.062 0.654752C195.15 0.62735 195.375 0.606395 195.61 0.511293L194.201 0.435534C194.35 0.388788 194.498 0.346879 194.645 0.30497C194.283 0.274748 193.818 0.252503 193.296 0.240494C192.804 0.224052 192.301 0.209527 191.787 0.196972C191.233 0.185689 190.654 0.180854 189.969 0.171182C189.843 0.163123 189.657 0.147003 189.426 0.134108C189.195 0.121889 188.956 0.11059 188.709 0.100258C188.723 0.0680205 188.735 0.0390064 188.62 0.00838027C189.027 -0.000886419 189.455 -0.0024972 189.865 0.00369357C190.276 0.00988435 190.656 0.0236819 190.972 0.0438419C191.025 0.0475533 191.089 0.0503376 191.158 0.0520062C191.228 0.0536747 191.303 0.0541885 191.376 0.0535133C192.093 0.0390062 192.468 0.0664087 192.861 0.103482C193.117 0.119594 193.436 0.129171 193.774 0.130885C194.42 0.130885 195.062 0.140556 195.684 0.145391C195.875 0.147826 196.071 0.147826 196.265 0.145391C196.901 0.136523 197.551 0.136523 198.18 0.145391C198.383 0.145448 198.581 0.149135 198.757 0.156146C198.934 0.163156 199.084 0.173286 199.195 0.185689C199.067 0.212157 199.011 0.240122 199.03 0.267896C199.022 0.287239 199.489 0.301746 199.719 0.317865C199.949 0.333984 199.536 0.342043 199.403 0.351715C198.85 0.385565 198.757 0.401684 199.147 0.443593C199.277 0.456434 199.369 0.471216 199.417 0.487021C199.466 0.502826 199.47 0.519317 199.43 0.535471C199.404 0.595111 199.207 0.65314 199.093 0.716004C199.384 0.738571 199.851 0.75469 199.94 0.796599C199.972 0.805272 200.03 0.813241 200.109 0.819932C200.188 0.826622 200.286 0.831866 200.397 0.835284C200.685 0.840149 200.952 0.849949 201.177 0.863925C201.402 0.877901 201.58 0.895678 201.696 0.915879C201.736 0.924643 201.819 0.93184 201.929 0.936026C202.039 0.940212 202.168 0.941076 202.289 0.938446C202.434 0.935418 202.559 0.928375 202.639 0.918775C202.72 0.909174 202.749 0.89775 202.72 0.886865C202.702 0.864579 202.662 0.842484 202.598 0.820777C202.606 0.803046 202.614 0.785315 202.495 0.762749C202.925 0.7511 203.385 0.748398 203.826 0.754934C204.267 0.76147 204.672 0.776996 204.996 0.799823C205.352 0.822389 205.686 0.84818 206.082 0.875582C206.059 0.930387 206.059 0.930386 206.897 0.981967L210.927 0.820777L211.802 0.838508C212.614 0.851404 212.792 0.838508 213.245 0.786928L213.543 0.745018C214.253 0.745018 215.071 0.745018 215.432 0.657975C215.61 0.693437 215.713 0.703109 215.688 0.711168C215.546 0.784335 215.246 0.855662 214.8 0.922327C214.685 0.938446 214.612 0.957789 214.476 0.973908C214.057 1.04689 214.022 1.1282 214.377 1.20119C214.549 1.23273 214.782 1.26206 215.07 1.28823C214.755 1.36133 214.312 1.43126 213.753 1.49616C213.276 1.54866 212.896 1.60562 212.624 1.66541C212.385 1.72392 211.996 1.7787 211.478 1.8266C211.214 1.84924 211.031 1.87647 210.948 1.90559C210.979 1.97133 211.116 2.0363 211.359 2.09901C211.413 2.11914 211.528 2.13791 211.697 2.15385C211.865 2.16979 212.082 2.18247 212.33 2.19089C212.33 2.19089 212.455 2.20056 212.517 2.20701C212.636 2.2824 212.536 2.35936 212.225 2.43268C212.18 2.45124 212.069 2.46871 211.903 2.48319C211.738 2.49768 211.524 2.50863 211.285 2.51488C210.783 2.531 210.321 2.55357 209.839 2.57291C209.318 2.592 208.871 2.62109 208.545 2.65712C208.218 2.69314 208.025 2.73477 207.985 2.77762C207.99 2.78889 207.986 2.8002 207.97 2.81147C207.961 2.81737 207.958 2.8233 207.962 2.8292L209.18 2.90013L207.989 3.01457C207.965 3.06938 208.589 3.06938 208.924 3.09194L208.76 3.12257C208.534 3.14675 208.192 3.1403 207.89 3.14191H207.589L207.578 3.1677C207.43 3.20961 206.743 3.20639 206.512 3.24346C206.28 3.28054 206.488 3.29827 206.894 3.30471C207.177 3.31045 207.477 3.31125 207.769 3.30707C208.062 3.30288 208.34 3.29381 208.583 3.28054C208.726 3.27048 208.841 3.25841 208.921 3.24507C209.4 3.18119 209.937 3.11978 210.53 3.06132C210.981 3.01298 211.564 2.97227 212.239 2.94204C212.434 2.9301 212.677 2.92355 212.925 2.92355C213.173 2.92355 213.41 2.9301 213.595 2.94204L213.946 2.92753C213.946 2.92753 214.156 2.93881 214.132 2.94365C214.06 3.01286 214.287 3.08125 214.779 3.13869L214.423 3.16448C213.898 3.18382 214.272 3.21445 214.217 3.24185C213.845 3.25636 213.348 3.26119 213.202 3.29988L212.939 3.31116H213.046L213.161 3.29504L213.691 3.31439C213.467 3.33373 213.309 3.35146 213.108 3.36597C212.999 3.37525 212.915 3.38604 212.862 3.39767C212.809 3.40931 212.788 3.42155 212.799 3.43367C212.818 3.45227 212.772 3.47107 212.666 3.48828C212.561 3.50549 212.399 3.52054 212.197 3.53199C211.954 3.54489 211.835 3.57229 211.699 3.5868L212.435 3.67706C212.435 3.67706 212.112 3.67706 212.3 3.68996L212.307 3.67384L212.711 3.68512C213.007 3.69802 213.202 3.69479 213.343 3.66739C213.484 3.63999 213.472 3.66739 213.541 3.65611C213.532 3.67706 213.372 3.69963 213.234 3.71897C213.071 3.737 212.883 3.75375 212.674 3.76894C213.14 3.83503 213.161 3.83664 212.622 3.88822C212.083 3.9398 212.309 3.96398 211.845 3.99299C211.38 4.02201 211.969 4.05264 212.294 4.0478C212.534 4.04327 212.783 4.04265 213.023 4.04599C213.263 4.04933 213.489 4.05654 213.685 4.06714L213.654 4.13807C213.51 4.1397 213.365 4.1397 213.223 4.13807C212.734 4.12517 212.288 4.11228 211.903 4.15419L212.144 4.19448L210.705 4.238C210.777 4.27375 211.033 4.30554 211.419 4.32666C211.387 4.35081 211.377 4.37504 211.387 4.39919C211.38 4.41692 211.23 4.4137 211.142 4.42015C210.821 4.43954 210.566 4.46439 210.4 4.4925C210.234 4.5206 210.161 4.55111 210.189 4.58134C210.177 4.60874 210.724 4.63614 211.033 4.61841C211.814 4.58359 212.672 4.56006 213.56 4.5491C214.087 4.52653 214.096 4.45561 214.999 4.45722C215.046 4.48734 214.96 4.5181 214.754 4.54485C214.548 4.5716 214.234 4.5929 213.858 4.60552C214.134 4.66354 215.315 4.62164 215.435 4.69095C215.141 4.70077 214.819 4.70475 214.503 4.70249C214.187 4.70023 213.887 4.6918 213.633 4.67805C213.577 4.6743 213.51 4.6717 213.436 4.67048C213.362 4.66925 213.285 4.66946 213.211 4.67106C213.137 4.67267 213.07 4.67563 213.014 4.67967C212.959 4.68371 212.918 4.6887 212.894 4.69417C213.08 4.7119 213.286 4.73286 213.515 4.75059C213.744 4.76832 213.805 4.77799 213.956 4.77638C215.097 4.77638 215.71 4.85053 216.714 4.86826C216.972 4.86826 217.041 4.90694 216.823 4.91339C216.615 4.9193 216.432 4.92936 216.293 4.94245C216.154 4.95555 216.066 4.97116 216.037 4.98754C215.896 5.01223 215.712 5.03553 215.491 5.05685C216.554 5.1106 217.792 5.14277 219.087 5.15034C219.333 5.15235 219.583 5.1484 219.802 5.13906C220.487 5.1039 221.222 5.07469 221.992 5.05201C222.264 5.04265 222.511 5.02952 222.719 5.01333C223.408 4.96497 223.99 4.96336 224.57 5.01333L225.526 5.0907C225.517 5.11165 225.397 5.14067 225.317 5.17613L226.035 5.20675L230.904 4.80056L232.048 4.89244L233.483 4.81023C233.597 4.80869 233.714 4.80869 233.827 4.81023C234.16 4.83763 234.427 4.86664 234.782 4.89082C235.137 4.915 235.707 4.89082 236.147 4.91823C236.587 4.94563 236.983 4.92629 237.498 4.92951C237.58 4.96406 237.564 4.99973 237.453 5.03428C237.438 5.06813 237.209 5.10037 237.194 5.13261C237.228 5.16272 237.161 5.19323 236.998 5.22138C236.836 5.24953 236.583 5.27442 236.263 5.2938C235.422 5.40488 234.378 5.50692 233.161 5.59683C233.054 5.60434 232.967 5.61336 232.907 5.62334C232.848 5.63332 232.815 5.64405 232.813 5.65486C232.843 5.68424 232.784 5.71395 232.642 5.74184C232.499 5.76973 232.276 5.79509 231.989 5.81605C231.912 5.82125 231.857 5.82798 231.83 5.8354C231.722 5.84482 231.648 5.85608 231.615 5.8681C231.581 5.88011 231.589 5.89247 231.639 5.90397C231.688 5.91548 231.776 5.92574 231.895 5.93378C232.014 5.94181 232.16 5.94735 232.318 5.94984C232.549 5.95508 232.784 5.95939 233.023 5.96274C233.018 5.97241 232.798 5.9853 232.838 5.99175C232.95 6.01315 232.994 6.03637 232.965 6.05959C232.936 6.08282 232.836 6.10539 232.672 6.12554L234.07 6.27383C234.825 6.26551 235.586 6.27813 236.207 6.30929C236.217 6.31911 236.193 6.32905 236.136 6.3381C236.079 6.34715 235.992 6.35501 235.883 6.36087C235.595 6.38022 235.327 6.40278 235.016 6.42374C234.827 6.43719 234.675 6.45324 234.567 6.47095C234.46 6.48866 234.399 6.50768 234.39 6.5269L235.168 6.56881C234.961 6.59944 234.803 6.61717 234.665 6.63651C234.773 6.65671 234.942 6.67464 235.16 6.68889C235.378 6.70315 235.638 6.71335 235.921 6.71872C235.995 6.71898 236.07 6.71812 236.141 6.71618C236.213 6.71424 236.278 6.71127 236.335 6.70743C236.853 6.65263 237.536 6.66714 238.197 6.68003C238.859 6.69293 239.221 6.7026 239.711 6.71388L240.589 6.67358C240.826 6.67867 241.042 6.68788 241.22 6.70047C241.397 6.71307 241.532 6.7287 241.612 6.74612C241.596 6.78158 241.165 6.7848 240.921 6.80092C240.354 6.85164 239.58 6.8869 238.725 6.90086C238.51 6.90086 238.308 6.9202 238.109 6.93149C237.682 6.95775 237.275 6.98573 236.889 7.01531C236.637 7.03729 236.404 7.06045 236.191 7.08462C236.172 7.12975 237.147 7.11363 236.631 7.16199C236.825 7.16199 236.907 7.17166 236.997 7.16199C237.631 7.15801 238.243 7.14068 238.762 7.11202C239.756 7.05481 240.908 7.01559 242.126 6.99757C243.439 6.97628 244.675 6.93208 245.734 6.86862C246.139 6.84722 246.602 6.83289 247.086 6.82671C247.662 6.82307 248.225 6.81044 248.738 6.78964C248.907 6.78117 249.098 6.77573 249.297 6.77377C249.496 6.77181 249.697 6.77338 249.884 6.77836C249.879 6.78964 249.721 6.80576 249.763 6.80898C250.364 6.86056 250.656 6.93149 251.543 6.97017C252.124 6.97017 252.791 6.97017 253.117 6.91376C253.443 6.85734 253.282 6.83155 252.469 6.77191C252.624 6.76247 252.817 6.75729 253.014 6.75729C253.21 6.75729 253.398 6.76247 253.545 6.77191L254.238 6.81221L254.866 6.8525C254.85 6.88958 254.837 6.91859 254.824 6.94922C254.788 6.98283 254.894 7.01609 255.126 7.04432C255.264 7.05916 255.387 7.07478 255.493 7.09107C255.924 7.15589 256.101 7.22901 256.004 7.30222C255.788 7.41141 255.446 7.51928 254.981 7.6246C254.483 7.72938 254.262 7.8406 253.871 7.94698C253.668 7.99675 253.409 8.04528 253.098 8.09205C252.517 8.19038 251.871 8.28871 251.29 8.38864C250.708 8.48858 250.025 8.57401 249.361 8.66589C248.356 8.78608 247.256 8.90181 246.067 9.01245C245.343 9.09304 244.598 9.17364 243.937 9.25746C243.154 9.3539 242.211 9.44275 241.131 9.52181C240.184 9.59866 239.353 9.68302 238.654 9.77327C238.581 9.7829 238.526 9.79321 238.49 9.80389C238.406 9.86357 238.064 9.92019 237.516 9.96508C237.565 9.97876 237.624 9.99221 237.692 10.0054C237.788 10.0203 237.822 10.0372 237.787 10.0539C237.753 10.0705 237.653 10.0862 237.501 10.0989C237.063 10.1351 236.709 10.1766 236.457 10.2214C236.361 10.2343 236.307 10.2487 236.301 10.2633C236.295 10.2779 236.336 10.2923 236.42 10.3052C236.498 10.319 236.517 10.3344 236.476 10.3493C236.435 10.3643 236.335 10.3781 236.19 10.389C235.824 10.4247 235.428 10.4586 235.005 10.4906C234.105 10.5593 233.034 10.6141 231.857 10.6518C231.728 10.6518 231.613 10.6679 231.463 10.6679C230.622 10.6854 229.859 10.7207 229.266 10.7694C228.558 10.8129 227.811 10.85 227.06 10.8919C225.97 10.9458 224.979 11.0103 224.114 11.0837C223.07 11.1095 222.542 11.1853 221.683 11.2304C220.893 11.276 220.152 11.3262 219.465 11.3803C218.353 11.4625 217.243 11.5415 216.151 11.6269C215.114 11.6942 214.172 11.7693 213.341 11.851C213.025 11.8849 212.399 11.8897 212.206 11.9364C212.014 11.9832 211.553 12.0025 211.196 12.0331L210.059 12.1218C209.866 12.1389 209.65 12.1546 209.415 12.1685C208.335 12.2266 207.63 12.312 206.635 12.3733H206.527C204.811 12.5347 202.807 12.678 200.574 12.7988C199.287 12.8875 197.856 12.96 196.484 13.047C196.183 13.0954 195.364 13.097 194.977 13.147C194.589 13.1969 193.893 13.2131 193.363 13.2453C192.832 13.2775 192.32 13.3162 191.748 13.3452C191.251 13.3709 190.844 13.4053 190.564 13.4452C189.908 13.521 189.085 13.5881 188.131 13.6434C186.871 13.7192 185.693 13.8046 184.397 13.8659C184.443 13.8942 184.388 13.9231 184.236 13.9497C184.085 13.9763 183.842 13.9997 183.534 14.0174C182.164 14.0996 180.94 14.1931 179.549 14.2737L179.174 14.293L175.005 14.5251C173.881 14.5864 172.8 14.6476 171.653 14.7105C171.201 14.7105 171.227 14.7492 170.922 14.7573C170.821 14.7428 170.715 14.7395 170.578 14.7573L170.567 14.7814L165.82 15.0571C163.971 15.1751 162.01 15.2829 159.954 15.3794C159.471 15.4067 159.025 15.4374 158.623 15.4713C158.244 15.4957 157.846 15.5183 157.431 15.539C156.866 15.5622 156.316 15.5875 155.784 15.6148C154.393 15.6954 152.92 15.7663 151.382 15.8388C149.844 15.9114 148.693 15.9823 147.329 16.0516C146.405 16.0984 145.482 16.1419 144.517 16.1822C144.057 16.2015 143.473 16.208 142.992 16.2241C142.512 16.2402 142.358 16.2483 142.307 16.2644C142.136 16.3111 141.597 16.3144 141.18 16.3321C140.368 16.3675 140.242 16.3611 139.934 16.2789L140.894 16.1983C141.127 16.1762 141.431 16.1589 141.775 16.1479C142.119 16.1368 142.492 16.1326 142.859 16.1354C143.004 16.1373 143.153 16.137 143.298 16.1345C143.443 16.132 143.581 16.1274 143.704 16.1209C144.698 16.0645 145.671 16.0033 146.622 15.9452L146.757 15.9323L146.686 15.8485C146.551 15.8469 146.413 15.8469 146.277 15.8485L141.415 16.0419C140.298 16.0855 139.123 16.1145 138.028 16.158C136.933 16.2015 136.342 16.2241 135.489 16.2547C135.128 16.2658 134.757 16.2749 134.38 16.2821C134.393 16.273 134.397 16.2638 134.392 16.2547C134.398 16.2402 134.406 16.2209 134.237 16.2144C134.048 16.2027 133.804 16.197 133.555 16.1983C133.324 16.2026 133.103 16.2097 132.901 16.2193C131.918 16.2625 130.762 16.2758 129.678 16.2563L129.369 16.3224C127.818 16.374 126.246 16.4272 124.628 16.4836C124.303 16.493 123.955 16.4969 123.612 16.4949C123.246 16.4949 122.889 16.4739 122.503 16.4723C122.126 16.4762 121.755 16.4833 121.396 16.4933C121.479 16.4761 121.595 16.4598 121.74 16.4449C121.887 16.4348 121.988 16.4215 122.029 16.407C122.07 16.3925 122.049 16.3776 121.969 16.3643C121.828 16.3418 121.752 16.3176 121.996 16.3015C122.218 16.2832 122.368 16.2608 122.428 16.2368C122.488 16.2128 122.456 16.1883 122.335 16.1661C122.278 16.1524 122.234 16.1384 122.203 16.1241H122.095C121.703 16.0855 121.008 16.1 120.479 16.079C120.238 16.0775 119.993 16.082 119.785 16.0919C119.239 16.1096 118.713 16.1322 118.146 16.1483C117.876 16.1562 117.589 16.1601 117.302 16.1596C116.893 16.1596 116.85 16.1596 116.554 16.0984C116.906 16.0816 117.175 16.0563 117.313 16.027C117.451 15.9976 117.451 15.9659 117.313 15.9372C116.952 15.8775 116.57 15.8147 115.208 15.8292C115.633 15.8046 116.04 15.7782 116.426 15.7502C116.539 15.7426 116.62 15.7327 116.657 15.7218C116.694 15.7109 116.687 15.6996 116.635 15.6892C116.583 15.6789 116.49 15.6701 116.368 15.664C116.246 15.6579 116.1 15.6548 115.951 15.6551C115.219 15.6485 114.469 15.6575 113.788 15.6809C113.218 15.7051 112.71 15.7341 112.049 15.7679H111.232C111.236 15.7582 111.11 15.7518 111.134 15.7454C111.288 15.6889 111.463 15.6325 111.64 15.5713C111.255 15.5629 110.913 15.5466 110.653 15.524C110.392 15.5015 110.224 15.4738 110.168 15.4439C110.14 15.4355 110.136 15.4267 110.159 15.418C110.181 15.4094 110.228 15.4012 110.297 15.394C110.497 15.3774 110.644 15.3577 110.728 15.3365C110.812 15.3152 110.83 15.293 110.781 15.2715L110.094 15.2183C108.212 15.252 106.378 15.3012 104.628 15.3649L103.052 15.4262C102.842 15.4133 102.891 15.4004 103.067 15.3907C103.244 15.3811 103.747 15.3617 104.098 15.3472C104.402 15.3362 104.666 15.3196 104.864 15.299C105.061 15.2784 105.186 15.2544 105.226 15.2295L104.61 15.1602C104.619 15.1409 104.631 15.1135 104.916 15.1006C105.108 15.0885 105.242 15.0721 105.297 15.054C105.352 15.0358 105.324 15.0171 105.218 15.0007C105.19 14.9863 105.197 14.9715 105.237 14.9571C105.656 14.9346 106.074 14.9136 106.45 14.8894C106.626 14.8788 106.77 14.8655 106.874 14.8505C106.977 14.8355 107.036 14.8191 107.048 14.8024C107.047 14.7867 106.997 14.7714 106.902 14.7577C106.807 14.744 106.67 14.7322 106.501 14.7234C105.884 14.7335 105.338 14.7613 104.982 14.8008C104.864 14.8235 104.657 14.8432 104.39 14.8573C104.122 14.8714 103.807 14.8792 103.484 14.8798C103.115 14.8803 102.756 14.8906 102.472 14.9089C102.188 14.9272 101.997 14.9523 101.934 14.9797C101.564 14.9894 101.237 14.999 100.911 15.0055C100.527 15.0123 100.17 15.0268 99.8816 15.0474C99.4148 15.0755 98.9057 15.0993 98.3656 15.1183C96.8122 15.1764 95.2581 15.236 93.7651 15.3037C93.37 15.3214 93.0366 15.3456 92.6428 15.3601C92.2491 15.3746 91.956 15.4052 91.4416 15.4004C91.3446 15.4005 91.2486 15.4023 91.1612 15.4057C91.0738 15.4091 90.9975 15.4139 90.9381 15.4197C90.1076 15.4872 89.1104 15.542 88.0053 15.5809C86.5102 15.6535 84.9526 15.7212 83.4567 15.7953C83.021 15.8202 82.613 15.8477 82.2371 15.8775C81.9496 15.8987 81.6462 15.9186 81.3287 15.9372C81.0856 15.9517 80.846 15.9581 80.9187 15.9887C80.9914 16.0194 80.6048 16.0178 80.3874 16.0226C79.6455 16.0441 78.8821 16.0608 78.1058 16.0726C77.3384 16.0814 76.5975 16.1017 75.9276 16.1322C75.4443 16.1548 74.956 16.1886 74.2945 16.1757C74.3022 16.158 74.31 16.1403 74.4281 16.1161C73.8781 16.0946 73.2633 16.0834 72.6346 16.0834C72.0059 16.0834 71.3813 16.0946 70.8125 16.1161L69.9519 16.0661C69.7511 16.0654 69.5491 16.0677 69.3581 16.073C69.1671 16.0783 68.9911 16.0863 68.8409 16.0967C68.7242 16.1041 68.5772 16.1082 68.427 16.1082C68.2768 16.1082 68.1334 16.1041 68.0231 16.0967C67.8608 16.0885 67.6682 16.0841 67.4691 16.0841C67.27 16.0841 67.0734 16.0885 66.904 16.0967C66.3624 16.1144 65.7727 16.121 65.1953 16.1161C65.0351 16.104 64.9272 16.0886 64.8849 16.0717C64.8425 16.0548 64.8677 16.0372 64.9571 16.021C65.0997 15.9932 65.1665 15.9638 65.1534 15.9344C65.1403 15.905 65.0477 15.8764 64.8811 15.8501C64.7925 15.8333 64.751 15.8152 64.7589 15.7969C64.7669 15.7786 64.8243 15.7606 64.9275 15.7437C65.3036 15.6712 65.1628 15.6486 64.3876 15.6003C64.2613 15.5921 64.1127 15.586 63.9513 15.5824C63.7898 15.5787 63.6191 15.5777 63.4498 15.5793C63.0546 15.5853 62.668 15.5945 62.2971 15.6067C62.0819 15.6067 61.8798 15.6261 61.6395 15.6341C60.4382 15.6744 60.2335 15.6502 59.7826 15.5987L59.4544 15.5616C58.8973 15.5466 58.2985 15.5411 57.7011 15.5455C57.1037 15.55 56.5226 15.5643 55.9998 15.5874C55.793 15.5977 55.5489 15.6028 55.3047 15.6019C54.5125 15.6014 53.7222 15.6135 52.9864 15.6374C52.5286 15.653 52.0243 15.6587 51.5341 15.6535C51.0438 15.6484 50.5885 15.6327 50.2227 15.6083C49.8941 15.5864 49.4787 15.5728 49.0344 15.5697C48.5179 15.5697 48.4438 15.5423 48.6967 15.5052C48.9497 15.4681 49.3818 15.4149 49.7674 15.3698C49.9018 15.3543 49.9771 15.3364 49.9851 15.3182C49.993 15.3 49.9333 15.2821 49.8125 15.2666C49.7137 15.2345 49.6702 15.2015 49.6832 15.1683C49.6936 15.1542 49.6638 15.1403 49.5956 15.1274C49.5274 15.1144 49.4225 15.1028 49.2879 15.0934C49.1534 15.0839 48.9923 15.0768 48.8156 15.0724C48.6388 15.0681 48.4505 15.0667 48.2634 15.0684C47.4671 15.0684 46.6923 15.0684 45.891 15.0796C45.5538 15.0829 45.2139 15.0829 44.8795 15.0796C44.1871 15.0647 43.4575 15.0603 42.733 15.0667C42.3899 15.0706 42.0448 15.0642 41.7723 15.049C40.9251 15.0138 40.1352 14.9717 39.4167 14.9233C39.2382 14.906 39.0126 14.8918 38.7541 14.8815C38.4957 14.8712 38.2099 14.8652 37.9147 14.8636C37.678 14.8636 37.4698 14.8475 37.2797 14.8395C37.1156 14.8066 37.0672 14.7708 37.139 14.7356C37.2109 14.7004 37.4007 14.6668 37.6905 14.638C37.9621 14.6074 38.2129 14.5751 38.4422 14.5429C38.726 14.5117 39.0723 14.484 39.4682 14.4607C39.9321 14.4279 40.258 14.3858 40.4034 14.3398C39.0475 14.3398 37.7272 14.3075 36.6159 14.3881L35.6975 14.372C35.7088 14.3462 35.7186 14.3237 35.7278 14.3027C35.8984 14.2566 35.9194 14.2085 35.789 14.1625C35.6979 14.1416 35.6828 14.1192 35.7453 14.0974C35.8077 14.0756 35.9454 14.0552 36.1446 14.0384C37.2978 13.911 38.6613 13.795 39.7305 13.6628C40.0747 13.6306 40.4869 13.6028 40.9501 13.5806C41.3925 13.5532 41.342 13.5209 40.7888 13.5064C40.4798 13.4999 40.1661 13.4945 39.8489 13.4903C38.5294 13.5548 38.0871 13.6805 36.5588 13.7305L35.7387 13.637C35.5485 13.6447 35.365 13.6533 35.1894 13.6628L32.721 13.8449C32.5137 13.8584 32.359 13.8757 32.2744 13.8951C32.1899 13.9145 32.1789 13.9351 32.2426 13.9545C32.2851 13.9802 32.2737 14.0063 32.2089 14.0319C32.1682 14.0496 32.2223 14.0676 32.3592 14.0819C32.668 14.1141 32.3346 14.1383 32.1311 14.1609C32.0773 14.1648 32.0139 14.1679 31.9446 14.1701C31.8754 14.1722 31.8015 14.1733 31.7275 14.1733C31.6534 14.1733 31.5805 14.1722 31.5131 14.1701C31.4457 14.1679 31.3851 14.1648 31.3348 14.1609C30.9149 14.1367 30.5401 14.1077 30.1224 14.0786C30.3421 14.019 29.9592 13.9594 30.3311 13.8965C30.3691 13.8858 30.3778 13.8747 30.3567 13.8639C30.3355 13.8531 30.2848 13.8428 30.2078 13.8336C30.0093 13.81 29.8993 13.7826 29.889 13.7543C29.8787 13.726 29.9684 13.6978 30.1491 13.6725L30.1569 13.6547C29.5884 13.6257 29.6777 13.5693 29.419 13.5209L28.8866 13.508C27.5649 13.479 27.5642 13.4806 26.5058 13.5387C26.2581 13.5145 26.5249 13.4951 26.7249 13.4806L28.3946 13.3533C29.4858 13.2695 30.6172 13.1921 31.8548 13.118C33.0924 13.0438 34.451 12.939 35.7171 12.8488C35.7805 12.8436 35.8269 12.8373 35.8523 12.8306C35.8777 12.8239 35.8814 12.8168 35.8632 12.8101C35.8043 12.8048 35.7299 12.8006 35.6455 12.7978C35.561 12.795 35.4686 12.7937 35.3752 12.794C34.9447 12.794 34.5108 12.802 34.0567 12.8069L33.2124 12.8181L32.9231 12.7907C32.7365 12.7746 32.5963 12.7504 32.3624 12.744C32.171 12.7401 31.9673 12.7401 31.7725 12.744C31.5777 12.748 31.399 12.7558 31.255 12.7666C30.8549 12.7956 30.4972 12.8262 30.118 12.8568C29.7387 12.8875 29.5352 12.91 29.2025 12.9326C28.5187 12.9703 27.8617 13.0106 27.2343 13.0535C26.7205 13.105 26.2513 13.1588 25.8295 13.2147C25.5593 13.2421 25.3099 13.2711 24.8113 13.2791C24.5679 13.2757 24.3513 13.2659 24.2001 13.2515C24.0488 13.237 23.9726 13.2188 23.985 13.2002C23.998 13.1854 24.061 13.1709 24.1683 13.1583C24.2755 13.1456 24.4233 13.135 24.5977 13.1276C25.0796 13.1002 25.5195 13.0689 25.9084 13.0341C26.4441 12.9799 27.1153 12.9339 27.8829 12.8987C28.1454 12.8891 28.3059 12.8665 28.5282 12.8504C28.7504 12.8343 28.9317 12.8133 29.1921 12.8085C29.9969 12.7891 30.3422 12.7375 30.7924 12.6924C30.9427 12.6749 31.0269 12.6549 31.0358 12.6344C31.0448 12.6139 30.9781 12.5938 30.8431 12.5764C30.5816 12.5412 30.2715 12.5082 29.9176 12.478C29.7364 12.4636 29.5115 12.4525 29.2605 12.4458C29.0095 12.4391 28.7393 12.4369 28.4709 12.4393C28.2893 12.4189 28.1803 12.3952 28.1535 12.3705C28.1267 12.3457 28.1832 12.3206 28.3177 12.2975C28.6645 12.2427 28.9675 12.1895 29.8389 12.1653C30.2469 12.1522 30.6256 12.1342 30.9597 12.1121C31.7047 12.0671 32.5846 12.0365 33.5165 12.0235C33.7575 12.02 33.992 12.014 34.2129 12.0057C35.7886 11.9461 37.2809 11.88 38.7746 11.8107C39.5656 11.7736 40.3587 11.7317 41.1906 11.6995C43.1398 11.6221 44.8844 11.5206 46.7524 11.4319C47.7307 11.3854 48.5892 11.3258 49.2827 11.2562C49.4134 11.2381 49.5224 11.2192 49.6086 11.1998C49.0925 11.187 48.5367 11.1844 47.9944 11.1923C47.4521 11.2002 46.9414 11.2183 46.5113 11.2449C46.2827 11.2677 45.976 11.2855 45.6254 11.2963C45.2749 11.3072 44.8943 11.3106 44.5261 11.3062L45.5227 11.2417C46.186 11.2014 46.8693 11.1643 47.5118 11.1224C48.5313 11.0547 49.4669 10.9822 50.5281 10.9177C51.3838 10.8646 52.1359 10.8027 52.7605 10.734C53.2115 10.684 53.7373 10.6381 54.3269 10.5969C54.7478 10.5695 54.7478 10.5695 54.9703 10.5035C54.7219 10.4809 54.4379 10.4906 54.174 10.5035C52.5754 10.5635 51.0698 10.637 49.6878 10.7227C48.9851 10.7601 48.3743 10.8065 47.8848 10.8597C47.7694 10.8774 47.4416 10.8887 47.1791 10.8984C46.362 10.9346 45.5875 10.9761 44.8652 11.0225C43.8689 11.0891 42.7403 11.1435 41.5234 11.1837C41.2715 11.1692 41.5347 11.1579 41.5389 11.1482C42.4495 11.0837 43.3392 11.0177 44.2706 10.9548C44.5241 10.9364 44.7978 10.9197 45.0887 10.9048C46.183 10.8578 47.0644 10.7868 47.6094 10.7017C47.6192 10.6792 48.0144 10.6614 48.1749 10.6389C48.249 10.6227 48.2925 10.6058 48.3043 10.5889C48.0143 10.5631 47.7281 10.5776 47.508 10.5889C46.8734 10.6261 46.2669 10.6659 45.6912 10.7082C45.1563 10.7477 44.5549 10.7819 43.9035 10.8097C43.4216 10.8291 43.0215 10.8581 42.5382 10.8806C42.2727 10.8895 41.9954 10.8959 41.7119 10.9C41.991 10.8572 42.3895 10.8193 42.8797 10.7888C43.2395 10.7533 43.7041 10.7243 43.7238 10.6792C43.5178 10.6582 43.3198 10.6679 43.1642 10.6792C42.8341 10.696 42.517 10.7143 42.2149 10.734C41.5744 10.7759 40.8723 10.8121 40.1231 10.842C39.7299 10.8589 39.3604 10.8789 39.021 10.9016C38.2473 10.9483 37.5139 11.0015 36.8062 11.0451C35.3498 11.1273 34.0393 11.2208 32.6461 11.3062C32.3363 11.3255 32.0668 11.3513 31.6356 11.3529C31.2045 11.3545 31.1837 11.3529 31.1234 11.3433C30.9885 11.3289 30.9347 11.311 30.973 11.2933C31.0414 11.2751 31.1933 11.2591 31.4016 11.2482C32.6369 11.1612 33.7988 11.0686 34.8801 10.9709C35.3652 10.9375 35.7813 10.8989 36.1138 10.8565C36.3799 10.8253 36.704 10.7971 37.0758 10.7726C37.6121 10.7324 38.1747 10.6942 38.7615 10.6582C39.0341 10.641 39.2598 10.6201 39.4253 10.5965C39.5908 10.573 39.6928 10.5474 39.7252 10.5212L38.925 10.4809C38.8075 10.4831 38.6914 10.4858 38.5771 10.4889L32.6064 10.8548L32.0113 10.8871C31.353 10.9161 31.1822 10.9129 30.4758 10.8548C31.8711 10.7609 32.9248 10.6419 33.5319 10.5099C33.354 10.5082 33.1732 10.5082 32.9939 10.5099C31.8409 10.5454 30.7657 10.5944 29.8098 10.655C29.2369 10.6856 28.6439 10.713 28.0501 10.742C28.1809 10.6888 28.8572 10.6679 29.2802 10.6356C30.2988 10.5668 31.1818 10.4875 31.9011 10.4003C32.147 10.3681 32.4656 10.3391 32.8423 10.3149C33.2222 10.2936 33.53 10.2659 33.7389 10.2342C33.9478 10.2024 34.0515 10.1676 34.0409 10.1327C34.0476 10.1003 34.0978 10.0679 34.1908 10.036C33.9474 10.0101 33.5829 9.99201 33.1659 9.98518C32.7489 9.97836 32.3079 9.98325 31.9257 9.99893C31.1032 10.0254 30.2414 10.0438 29.3622 10.0537C28.9241 10.0585 28.5011 10.07 28.1207 10.0876C27.7854 10.1033 27.3942 10.1106 27.0066 10.1082C26.6191 10.1059 26.2565 10.0941 25.9742 10.0747C25.5966 10.0521 25.2413 10.0279 24.886 10.0038C24.5306 9.97959 24.1143 9.94735 23.6973 9.91672C23.364 9.92573 23.042 9.93706 22.7355 9.95057C22.5005 9.96458 22.2189 9.97339 21.9242 9.97596C21.6294 9.97853 21.3337 9.97476 21.072 9.96508C21.1923 9.93607 21.3334 9.90866 21.4773 9.87481C21.2148 9.8534 21.015 9.82807 20.8902 9.80036C20.7654 9.77264 20.7182 9.74313 20.7514 9.71362C20.7627 9.68783 20.4733 9.66043 20.3562 9.63303C20.2183 9.6113 20.1728 9.58675 20.2256 9.56259C20.2784 9.53842 20.4271 9.51578 20.6521 9.49763C20.9275 9.47132 21.144 9.44191 21.2927 9.41059C21.3434 9.40183 21.3644 9.39234 21.3537 9.38297C21.3431 9.37361 21.3011 9.36467 21.2317 9.35697C21.1623 9.34927 21.0676 9.34307 20.9563 9.33892C20.845 9.33477 20.7207 9.33281 20.5947 9.33322C20.2101 9.33579 19.8335 9.34401 19.4866 9.3574C18.8884 9.37996 18.3183 9.40414 17.7762 9.42993C17.1759 9.45765 16.4934 9.47323 15.798 9.47506C15.1739 9.47506 14.6143 9.47506 14.2674 9.43154C13.9206 9.38802 13.4573 9.41381 13.059 9.38963C13.2231 9.34092 13.5546 9.29588 14.0199 9.25907C14.328 9.23863 14.5776 9.21373 14.7528 9.18597C14.928 9.15821 15.0249 9.12821 15.0373 9.09788L13.838 9.03502C12.9175 9.02373 12.479 9.09143 11.5208 9.11722L12.444 9.02373C12.4593 9.0184 12.4617 9.01294 12.4511 9.00761C12.2725 8.92379 12.1052 8.91251 11.0715 8.91412H10.4904L9.58154 8.92541C9.42377 8.91446 9.30855 8.90051 9.24736 8.88496C9.18617 8.8694 9.18117 8.85278 9.23288 8.83675C9.34078 8.80873 9.35361 8.77935 9.27019 8.75132C9.16564 8.73529 9.14062 8.71684 9.19944 8.69918C9.25826 8.68151 9.39723 8.66574 9.59223 8.65461C9.7471 8.64494 9.73613 8.62076 9.80844 8.60303C9.87537 8.58027 10.0066 8.5587 10.1931 8.53979C10.3796 8.52088 10.617 8.50506 10.8893 8.49342C11.6874 8.45428 12.4289 8.40888 13.1006 8.35802H12.9715C13.7002 8.33484 14.3708 8.30207 14.9507 8.2613C15.5292 8.21778 16.2959 8.18716 16.9161 8.14686C17.429 8.12239 17.8008 8.08423 17.9526 8.04047C18.1 7.99856 18.7569 7.97277 19.2604 7.95343C19.5589 7.94231 19.8454 7.92937 20.1166 7.91475C20.4745 7.88856 20.9375 7.87207 21.4284 7.868C21.5758 7.86693 21.7183 7.86304 21.8422 7.85672C23.0491 7.80352 24.2553 7.75194 25.4421 7.69553C25.7127 7.67893 26.0383 7.66831 26.3809 7.6649C26.5251 7.66366 26.6623 7.65916 26.774 7.65201C28.6297 7.5424 30.7712 7.46825 32.5852 7.35542C32.803 7.33961 33.048 7.32605 33.3131 7.31512C33.9137 7.29567 34.4194 7.26228 34.7535 7.22002C34.934 7.1974 35.1742 7.17769 35.4589 7.16215C35.7436 7.14661 36.0665 7.13557 36.4071 7.12975C36.9701 7.11627 37.479 7.09177 37.88 7.05883C38.6733 7.00664 39.5142 6.95869 40.3961 6.91537C40.6676 6.90339 40.9006 6.88698 41.0771 6.86742C41.2536 6.84785 41.3688 6.82565 41.4138 6.80254C41.1654 6.77997 40.9252 6.78803 40.7037 6.80254C39.8266 6.83961 38.9502 6.87507 38.0933 6.91537C37.3195 6.94434 36.5835 6.9789 35.8961 7.01853C35.5572 7.04077 35.1189 7.05236 34.6768 7.05077C34.134 7.04786 33.59 7.06054 33.1547 7.08623C32.8305 7.10373 32.4851 7.11885 32.1235 7.13136C31.8889 7.13609 31.6438 7.13609 31.4133 7.13136C31.3213 7.12889 31.2227 7.12791 31.124 7.12847C31.0253 7.12902 30.9286 7.13111 30.84 7.1346C30.7513 7.13809 30.6728 7.1429 30.6094 7.14873C30.546 7.15455 30.4991 7.16127 30.4717 7.16844C30.186 7.2313 29.4264 7.24581 28.7903 7.27321C27.7699 7.2442 27.1099 7.3264 26.1838 7.32801C26.1111 7.3287 26.0405 7.33049 25.9764 7.33326C25.9123 7.33603 25.856 7.33973 25.8108 7.34413C24.1252 7.45858 22.11 7.53917 20.3224 7.64072C20.1256 7.65225 19.8912 7.65951 19.6461 7.66168C18.043 7.67502 16.5445 7.73249 15.4435 7.82287C15.3086 7.83285 15.152 7.84103 14.981 7.84705C14.1821 7.86067 13.4321 7.88831 12.7936 7.92764C11.7818 7.97761 10.8123 8.02919 9.78039 8.07594C9.06479 8.10372 8.45308 8.14485 8.00652 8.19522C8.0016 8.2065 7.67664 8.21133 7.43497 8.22262C7.27124 8.20327 7.12838 8.18554 6.96324 8.16943C6.80791 8.14696 6.58874 8.12742 6.32064 8.11213C6.05254 8.09683 5.74181 8.08614 5.40938 8.08077C4.84981 8.08077 4.75834 8.0437 5.11748 8.00985C6.03288 7.91189 7.22332 7.82982 8.60129 7.76967C9.74577 7.71165 10.9118 7.65362 12.0764 7.59881C12.7569 7.56819 13.4791 7.54078 14.1388 7.50855C14.3643 7.50069 14.5975 7.49423 14.8359 7.4892C15.13 7.48458 15.4114 7.47583 15.665 7.46341C16.4695 7.41317 17.3833 7.37386 18.3629 7.34736C18.7185 7.33427 19.057 7.31861 19.3733 7.30061C20.1195 7.25573 20.9392 7.21833 21.8108 7.18939C22.3517 7.17053 22.8724 7.14843 23.3677 7.1233C23.5434 7.11524 23.6789 7.10074 23.8525 7.09751C25.389 7.07817 26.399 6.98307 27.7537 6.93632C28.4078 6.90907 29.0272 6.87722 29.6031 6.84122C30.7386 6.7831 31.9115 6.7293 33.117 6.68003C34.7148 6.61878 36.1711 6.53657 37.6864 6.46726C37.9856 6.45368 38.2727 6.4386 38.5455 6.42213C39.8685 6.33794 41.3246 6.26644 42.8782 6.20936C43.2292 6.19459 43.5381 6.17466 43.7856 6.15081C44.033 6.12696 44.2136 6.0997 44.3161 6.07073C44.3537 6.05254 44.3005 6.03416 44.1665 6.01915C43.9517 6.00223 43.7131 5.9871 43.4544 5.97402L34.8415 6.32864C34.4789 6.34267 34.1272 6.35828 33.7881 6.37538C32.7909 6.42592 31.7575 6.4722 30.693 6.514C29.6416 6.55591 28.6499 6.60911 27.6388 6.65746C27.3408 6.67157 27.0334 6.68448 26.718 6.69615C24.5808 6.77 22.5089 6.85456 20.5168 6.94922C19.6806 6.99113 18.7634 7.02175 17.9071 7.06044C17.0509 7.09912 15.8849 7.15715 14.873 7.20712L11.7466 7.36831C11.1306 7.39894 10.5347 7.43279 9.93956 7.46503C9.11037 7.39249 8.83622 7.37959 7.82399 7.38121C7.47647 7.38047 7.13012 7.38718 6.82557 7.40055C5.87479 7.45858 4.63678 7.48437 3.73186 7.53595C3.1808 7.56183 2.72679 7.59799 2.41633 7.64072C2.14479 7.6757 1.82753 7.70864 1.46945 7.73905C0.368621 7.69714 0.22111 7.64072 0.958782 7.57786C1.15952 7.56174 1.44493 7.54884 1.58251 7.5295C1.66105 7.51799 1.77377 7.50792 1.91166 7.50009C2.04956 7.49225 2.20882 7.48687 2.37697 7.48437C2.90465 7.47335 3.3889 7.45222 3.78114 7.42312C4.14717 7.39247 4.60948 7.36916 5.1235 7.35542C5.51089 7.35542 5.80971 7.3119 6.12157 7.28772C6.43344 7.26354 6.68212 7.23614 7.20076 7.2313C7.29604 7.23075 7.38909 7.22857 7.47275 7.22494C7.55641 7.22131 7.62847 7.21631 7.68339 7.21035C8.20615 7.16937 8.84665 7.1379 9.55287 7.11847C10.6275 7.07981 11.6222 7.02926 12.5022 6.96856C13.0252 6.92817 13.4597 6.88189 13.7888 6.83155C13.8767 6.81586 14.0161 6.80198 14.1938 6.79125C15.0998 6.75161 16.1006 6.72635 17.1316 6.7171C17.521 6.71462 17.9066 6.70867 18.28 6.69937C19.0491 6.68184 19.7848 6.65633 20.4653 6.62361C21.4514 6.57324 22.4854 6.52851 23.5583 6.48983C24.2195 6.465 24.8516 6.43587 25.4471 6.40278C26.0605 6.37007 26.7229 6.343 27.4193 6.32219C28.1095 6.29892 28.7014 6.26141 29.1237 6.21419C29.2578 6.19355 29.3612 6.17192 29.4316 6.14972C28.3823 6.14324 27.3262 6.16685 26.4758 6.2158C26.1473 6.2287 25.8813 6.24643 25.5175 6.24159L25.514 6.24965C25.4506 6.25803 25.3489 6.26447 25.2284 6.26774C25.1079 6.27101 24.977 6.27088 24.8607 6.26738C24.874 6.23676 24.8867 6.20774 24.8959 6.18679C25.5507 6.15671 26.183 6.12388 26.7897 6.08846C27.2988 6.05623 28.0457 6.07073 28.4729 6.02882C29.3644 6.00787 29.8862 5.94662 30.6743 5.91599C31.4625 5.88536 32.3505 5.87247 33.1387 5.84184C33.8235 5.81206 34.4847 5.77922 35.1186 5.74352C35.3344 5.72808 35.5887 5.71601 35.8658 5.70806C36.2581 5.69972 36.6148 5.68336 36.8949 5.66084C37.1749 5.63831 37.3671 5.61055 37.4494 5.58072C37.328 5.56298 37.1658 5.54042 36.9819 5.51785C37.2423 5.47814 37.6642 5.44535 38.1849 5.42436L38.912 5.38568C39.1057 5.37641 39.2467 5.36204 39.306 5.34554C39.3653 5.32903 39.3383 5.31167 39.2305 5.29702C37.7568 5.27123 37.6957 5.26317 36.7418 5.37762L35.3684 5.41791L35.3906 5.4163ZM53.8478 4.74575H53.7402H53.8478ZM231.424 6.42052L231.416 6.43825L231.424 6.4189H231.661L231.666 6.40762L231.424 6.42052ZM191.732 0.865911C191.396 0.864296 191.058 0.864296 190.72 0.865911C190.633 0.867935 190.554 0.871484 190.488 0.876254C190.422 0.881025 190.372 0.886877 190.342 0.893313C190.334 0.912656 190.526 0.915879 190.698 0.915879C190.916 0.916596 191.134 0.912941 191.331 0.90529C191.527 0.89764 191.694 0.886271 191.815 0.872358L191.994 0.856239L191.732 0.865911ZM31.6825 13.7095C31.8953 13.7018 32.0949 13.692 32.2763 13.6805C33.0757 13.6241 33.8341 13.5628 34.6551 13.5064C35.6744 13.418 36.87 13.3418 38.1971 13.2808C38.7163 13.2576 39.1415 13.224 39.4231 13.184C39.5932 13.1616 39.8215 13.1419 40.0941 13.126L43.5472 12.9068C43.7551 12.8875 43.9307 12.8664 44.0697 12.8439C43.7469 12.8439 43.5316 12.8439 43.4025 12.8439C43.1455 12.8553 42.9306 12.8714 42.7795 12.8907C42.6237 12.9182 42.3373 12.9406 41.9772 12.9535C41.6147 12.9676 41.2629 12.9832 40.9238 13.0003C40.2849 13.0341 39.6445 13.0712 39.0049 13.1067C38.8046 13.1711 38.045 13.1857 37.4089 13.2131L36.9234 13.2405C35.355 13.3492 33.8676 13.4644 32.4684 13.5854C32.1969 13.6077 31.9686 13.6326 31.7904 13.6596C31.7298 13.6765 31.7221 13.6942 31.7679 13.7111H31.6603L31.6825 13.7095ZM107.593 14.9829C107.983 14.9665 108.393 14.953 108.816 14.9426C109.144 14.9373 109.461 14.9281 109.753 14.9152C111.39 14.8431 113.11 14.7827 114.89 14.7347C115.123 14.7293 115.345 14.7211 115.546 14.7105L116.96 14.6267C117.403 14.5977 117.406 14.5912 117.003 14.5284C116.717 14.5269 116.429 14.5269 116.142 14.5284C115.97 14.5284 115.69 14.5284 115.64 14.5445C115.293 14.5993 114.577 14.6122 113.986 14.6348C112.278 14.7025 110.508 14.7637 108.78 14.8282C108.414 14.841 108.061 14.8561 107.727 14.8733C107.518 14.8828 107.331 14.8948 107.173 14.9088C107.126 14.9118 107.088 14.9155 107.061 14.9197C107.034 14.9239 107.019 14.9284 107.017 14.933C107.015 14.9375 107.026 14.942 107.049 14.9462C107.073 14.9504 107.108 14.9541 107.152 14.9571C107.309 14.9677 107.486 14.9764 107.679 14.9829H107.593ZM108.897 2.78246L110.553 2.68736C110.751 2.67607 110.91 2.65673 111.128 2.65028C112.282 2.60604 113.334 2.54773 114.238 2.47781C114.545 2.4525 114.912 2.4317 115.32 2.41656C116.567 2.36965 117.729 2.31055 118.775 2.24086C119.458 2.20256 120.089 2.15936 120.661 2.11191C120.702 2.10559 120.725 2.09871 120.728 2.09176C120.731 2.08481 120.714 2.07793 120.678 2.07161C120.666 2.06707 120.641 2.06282 120.605 2.05914C120.568 2.05546 120.521 2.05244 120.467 2.0503C120.412 2.04815 120.352 2.04693 120.29 2.04671C120.228 2.0465 120.166 2.04729 120.107 2.04904C119.342 2.06398 118.629 2.09215 118.027 2.13125C117.47 2.16958 116.864 2.20361 116.218 2.2328C115.602 2.26343 115.213 2.31501 114.431 2.33113C114.103 2.3401 113.822 2.35718 113.635 2.37948C113.257 2.42007 112.702 2.44977 112.071 2.4633C111.695 2.47306 111.34 2.48721 111.019 2.50521C110.246 2.55196 109.513 2.60354 108.803 2.65351C108.578 2.66818 108.334 2.68114 108.075 2.69219L104.432 2.85338C103.555 2.89046 102.679 2.92592 101.822 2.96622C101.117 2.99428 100.469 3.03016 99.9033 3.0726C99.2995 3.11766 98.6323 3.15767 97.9142 3.19188C96.81 3.25636 95.7078 3.316 94.4974 3.37725C93.7265 3.41755 92.9348 3.45623 92.1231 3.49169C91.7079 3.50494 91.3678 3.52905 91.1681 3.55939C91.0506 3.58196 90.7264 3.58518 90.4639 3.59486C89.0488 3.63071 87.7453 3.68902 86.6445 3.76572C86.5046 3.77618 86.3488 3.78538 86.1805 3.79312C85.102 3.84792 83.9812 3.90112 82.9464 3.95431C82.6754 3.96981 82.423 3.98708 82.1922 4.00589C82.2279 4.01537 82.3115 4.02334 82.4256 4.02814C82.5397 4.03294 82.6756 4.03421 82.8051 4.03168C83.8125 4.01147 84.7727 3.97877 85.6451 3.93497C87.092 3.85649 88.6198 3.78694 90.2125 3.72703C91.453 3.68543 92.5613 3.62372 93.455 3.5465C94.1546 3.48719 95.1004 3.4473 96.1299 3.43367C96.5723 3.42969 96.9918 3.41562 97.3312 3.39337C97.6563 3.37036 98.0374 3.35227 98.4521 3.34018C99.3245 3.31285 100.156 3.27824 100.929 3.23701C101.681 3.19188 102.371 3.13869 103.144 3.09356C103.917 3.04842 105.104 2.99039 106.055 2.93237C107.006 2.87434 107.953 2.82437 108.897 2.78246ZM39.0762 5.45338C39.2085 5.49529 39.5473 5.50818 39.8937 5.50334C41.0999 5.49896 42.2628 5.46367 43.1871 5.40341C43.6765 5.3605 44.3566 5.33232 45.094 5.32442C45.9491 5.31165 46.7265 5.27683 47.2891 5.2261C47.4283 5.21513 47.5302 5.20184 47.5858 5.18741C47.59 5.17774 47.5977 5.16001 47.5991 5.15679C47.5306 5.15232 47.4488 5.14912 47.36 5.14745C47.2712 5.14577 47.1777 5.14566 47.0869 5.14711L43.2149 5.29057L42.5378 5.31314C41.2922 5.34508 40.1216 5.3925 39.0762 5.45338ZM47.2961 5.80155C47.9651 5.84668 47.9657 5.84507 48.2878 5.84668C49.8307 5.84283 51.3409 5.8059 52.6386 5.74029C52.9266 5.72525 53.1642 5.70534 53.3312 5.68227C53.4222 5.67562 53.4755 5.66664 53.4796 5.65728C53.4837 5.64792 53.4382 5.63894 53.353 5.6323L52.8277 5.60328C51.9443 5.62447 51.0778 5.64978 50.2335 5.67904C49.2502 5.71289 48.3918 5.75641 47.3821 5.80155H47.2961ZM107.2 14.6509C107.856 14.7266 107.856 14.725 108.812 14.7041C109.479 14.6898 110.119 14.6686 110.712 14.6412C111.437 14.6074 112.183 14.5751 112.907 14.5429C113.086 14.5372 113.233 14.5267 113.318 14.5136C113.403 14.5005 113.421 14.4857 113.369 14.472C113.258 14.4598 113.095 14.451 112.905 14.4469C112.715 14.4428 112.511 14.4437 112.324 14.4494L111.929 14.4671C111.447 14.4865 110.944 14.5042 110.482 14.5268C110.188 14.5465 109.838 14.5609 109.461 14.569C109.084 14.5772 108.69 14.5787 108.31 14.5735L107.2 14.6509ZM49.6902 5.0504C49.8559 5.06084 50.0403 5.06951 50.2385 5.07619C50.9889 5.08436 51.7622 5.07114 52.4068 5.03912C52.7138 5.02622 52.9826 5.00204 53.3061 5.00043C53.8801 4.99099 54.4283 4.97348 54.9213 4.94885C54.9213 4.94885 55.0553 4.93757 55.0998 4.93434L55.1307 4.86342C54.8831 4.8601 54.6281 4.8601 54.3775 4.86342C53.5491 4.8876 52.7401 4.91661 51.9318 4.94402C51.1236 4.97142 50.8403 4.97948 50.3146 5.00043C50.0857 5.01556 49.8765 5.0323 49.6902 5.0504ZM39.983 14.1689L41.1745 14.2495C41.5294 14.2436 41.8525 14.2292 42.0946 14.2085C42.3368 14.1879 42.4846 14.1621 42.5157 14.1351C42.5923 14.1192 42.585 14.102 42.4953 14.087C42.4056 14.0719 42.2404 14.0603 42.0344 14.0545C41.8329 14.0454 41.6071 14.0395 41.3712 14.0373C41.1352 14.0351 40.8941 14.0365 40.6627 14.0416L39.983 14.1689ZM48.1805 13.0406C47.4639 13.0534 46.7906 13.0782 46.2119 13.1131C45.8572 13.1454 45.3551 13.1668 44.8085 13.1728C43.8109 13.1799 42.877 13.2158 42.2037 13.2727C42.2037 13.2727 42.1952 13.292 42.0827 13.3033C41.9702 13.3146 42.4486 13.3033 42.5562 13.3033C43.3207 13.2775 44.0866 13.2485 44.745 13.2195C45.1507 13.1984 45.5842 13.1806 46.038 13.1663C46.6637 13.1481 47.2491 13.1225 47.7713 13.0906C47.7713 13.0906 47.9713 13.076 48.1798 13.0422L48.1805 13.0406ZM115.617 2.17961C115.261 2.17121 114.881 2.16902 114.506 2.17321C114.132 2.1774 113.772 2.18785 113.454 2.20379C113.209 2.21498 113.019 2.23183 112.913 2.25168C112.807 2.27153 112.791 2.29325 112.868 2.3134C113.126 2.3134 113.471 2.3134 113.664 2.3134C114.303 2.27955 114.837 2.23925 115.617 2.17961ZM179.779 1.13026C179.493 1.12345 179.185 1.12287 178.89 1.12857C178.594 1.13427 178.323 1.14603 178.108 1.1625C177.997 1.17056 178.096 1.1899 178.09 1.20441C178.08 1.20812 178.084 1.21192 178.101 1.21542C178.118 1.21892 178.147 1.22198 178.186 1.22429C178.224 1.22659 178.271 1.22806 178.32 1.22853C178.37 1.22901 178.421 1.22847 178.467 1.22698C178.765 1.22095 179.04 1.20955 179.268 1.1938C179.497 1.17805 179.671 1.15844 179.776 1.13671L179.779 1.13026ZM184.221 1.20925C184.168 1.19927 184.069 1.19117 183.94 1.18643C183.812 1.18169 183.664 1.18064 183.522 1.18345C183.279 1.19536 183.062 1.21006 182.879 1.22698C182.678 1.24309 182.86 1.2705 183.159 1.27694C183.285 1.27921 183.417 1.27924 183.545 1.277C183.673 1.27477 183.793 1.27035 183.897 1.26409C184 1.25783 184.082 1.24991 184.139 1.24095C184.195 1.23198 184.223 1.22223 184.22 1.21247L184.221 1.20925ZM60.6161 4.62325C59.9538 4.61196 59.4864 4.64743 58.9441 4.6571C58.4019 4.66677 58.2706 4.6716 58.3677 4.69578C58.4647 4.71996 58.8196 4.69578 59.0564 4.69578C59.376 4.6955 59.6911 4.68857 59.9666 4.67576C60.242 4.66295 60.4669 4.64477 60.6161 4.62325ZM196.992 5.2809C196.654 5.28812 196.325 5.29784 196.011 5.30992C195.974 5.31604 195.953 5.32262 195.95 5.32926C195.947 5.3359 195.962 5.34248 195.994 5.3486C195.994 5.3486 196.225 5.35989 196.355 5.35989C196.829 5.35827 196.821 5.32604 196.992 5.2809ZM247.327 6.91698C247.577 6.93471 247.7 6.94922 247.892 6.95405C247.978 6.9547 248.066 6.95388 248.149 6.95165C248.232 6.94942 248.308 6.94583 248.371 6.94116C248.441 6.92872 248.447 6.91491 248.388 6.90247C248.388 6.90247 248.136 6.88797 248.048 6.89119C247.796 6.89768 247.554 6.90633 247.327 6.91698ZM49.8118 4.91984C49.3168 4.91984 48.8433 4.91984 48.5438 4.96497C49.3221 4.95691 49.3221 4.95691 49.8118 4.91984ZM57.7179 4.80378C57.1918 4.77638 56.9078 4.78605 56.6848 4.80378C56.6376 4.80778 56.6087 4.81279 56.6023 4.81803C56.596 4.82328 56.6125 4.82848 56.6495 4.83285C56.6865 4.83722 56.7419 4.84052 56.8074 4.84226C56.8728 4.84399 56.9448 4.84407 57.0123 4.84247C57.2621 4.83118 57.4983 4.81823 57.7179 4.80378ZM82.2559 3.56423C82.2595 3.55617 82.2637 3.5465 82.1346 3.5465C82.0992 3.54494 82.0588 3.54412 82.0172 3.54412C81.9757 3.54412 81.9345 3.54494 81.8979 3.5465C81.8979 3.5465 81.8936 3.55617 81.8908 3.56262L82.2559 3.56423ZM111.22 15.1538L110.953 15.1747H111.082L111.41 15.1618L111.22 15.1538ZM198.279 0.362998C198.171 0.362998 198.063 0.362998 198.059 0.374281C198.038 0.377023 198.027 0.380062 198.026 0.383147C198.025 0.386231 198.033 0.389271 198.051 0.392012C198.051 0.392012 198.201 0.392012 198.266 0.392012L198.279 0.362998ZM182.387 1.26889C182.319 1.27175 182.259 1.27559 182.21 1.28017L182.206 1.28984H182.421L182.387 1.26889ZM45.2532 10.5776C45.1687 10.5762 45.0806 10.5762 44.9949 10.5776H44.8873C44.8873 10.5776 45.0122 10.5873 45.0767 10.5873C45.1413 10.5873 45.1872 10.5808 45.2532 10.5776Z" fill="#F2994A"/>
</svg>
