<svg width="556" height="606" viewBox="0 0 556 606" fill="none" xmlns="http://www.w3.org/2000/svg">
<g opacity="0.2">
<path d="M260.498 290.593C264.514 286.378 268.544 282.085 272.537 277.679C273.657 276.482 275.343 276.984 276.277 278.927C277.21 280.87 277.129 283.462 276.008 284.659C272.001 289.143 267.955 293.514 263.887 297.694C262.766 298.891 261.043 298.276 260.124 296.255C259.522 295.061 259.393 293.564 259.619 292.391C259.769 291.608 260.062 291.009 260.513 290.514L260.498 290.593ZM287.912 271.214C291.814 266.66 295.732 262.027 299.612 257.281C300.694 255.971 300.776 253.379 299.722 251.445C298.72 249.545 297.02 249.122 295.937 250.432C292.072 255.099 288.207 259.767 284.32 264.243C283.936 264.694 283.643 265.293 283.508 265.997C283.268 267.249 283.449 268.781 284.104 270.01C285.106 271.91 286.776 272.489 287.859 271.179L287.912 271.214ZM182.731 360.696C182.536 361.714 182.604 362.906 183.034 364.073C183.817 366.181 185.465 367.186 186.714 366.251C191.151 362.934 195.603 359.538 200.071 356.065C201.319 355.129 201.626 352.599 200.843 350.491C200.059 348.383 198.381 347.534 197.133 348.469C192.718 351.978 188.281 355.295 183.859 358.534C183.25 358.924 182.859 359.722 182.679 360.661L182.731 360.696ZM-275.889 23.3527C-272.069 18.9199 -268.129 14.4789 -264.068 10.0296C-262.948 8.83277 -262.814 6.27543 -263.732 4.25418C-264.666 2.31117 -266.337 1.73156 -267.51 2.89341C-271.638 7.38604 -275.646 11.8705 -279.466 16.3032C-279.849 16.7543 -280.09 17.3884 -280.225 18.0926C-280.465 19.3445 -280.284 20.8762 -279.628 22.105C-278.627 24.0047 -276.942 24.5062 -275.874 23.2744L-275.889 23.3527ZM310.988 242.87C314.762 238.054 318.499 233.125 322.198 228.083C323.243 226.659 323.204 224.076 322.188 222.254C321.119 220.398 319.456 220.088 318.426 221.433C314.742 226.397 311.005 231.325 307.298 236.098C306.967 236.584 306.742 237.14 306.622 237.766C306.367 239.096 306.601 240.663 307.256 241.891C308.272 243.713 309.973 244.136 311.003 242.791L310.988 242.87ZM209.121 339.844C208.911 340.94 209.017 342.245 209.514 343.369C210.365 345.433 211.991 346.248 213.186 345.277C217.511 341.62 221.835 337.963 226.136 334.115C227.295 333.031 227.602 330.501 226.736 328.515C225.885 326.45 224.191 325.679 223.033 326.763C218.747 330.533 214.475 334.225 210.151 337.882C209.594 338.306 209.271 339.062 209.106 339.922L209.121 339.844ZM-239.441 -14.639C-238.283 -15.7226 -238.028 -18.288 -238.894 -20.2743C-239.76 -22.2605 -241.453 -23.0316 -242.611 -21.948C-246.943 -17.9432 -251.117 -13.8335 -255.155 -9.8103C-255.606 -9.31593 -255.914 -8.63842 -256.049 -7.93423C-256.274 -6.76057 -256.131 -5.34199 -255.581 -4.18318C-254.662 -2.16192 -253.007 -1.50416 -251.834 -2.666C-247.795 -6.68917 -243.637 -10.7205 -239.373 -14.6821L-239.441 -14.639ZM235.727 315.078C235.223 315.537 234.915 316.215 234.765 316.997C234.54 318.171 234.699 319.511 235.181 320.713C236.047 322.7 237.74 323.471 238.898 322.387C243.094 318.469 247.268 314.359 251.441 310.249C252.6 309.166 252.801 306.565 251.883 304.544C250.964 302.523 249.308 301.865 248.135 303.027C244.014 307.171 239.856 311.203 235.675 315.043L235.727 315.078ZM-213.804 -37.1378C-212.593 -38.1864 -212.248 -40.6037 -213.084 -42.7464C-213.935 -44.811 -215.546 -45.7036 -216.809 -44.69C-221.254 -41.0248 -225.593 -37.2896 -229.797 -33.641C-230.301 -33.1816 -230.677 -32.4609 -230.827 -31.6785C-231.037 -30.5831 -230.931 -29.2778 -230.449 -28.0757C-229.598 -26.0112 -227.905 -25.2402 -226.747 -26.3238C-222.543 -29.9724 -218.271 -33.6642 -213.827 -37.3294L-213.804 -37.1378ZM-158.473 434.457C-163.771 432.969 -168.985 431.36 -174.117 429.63C-175.404 429.217 -176.547 430.222 -176.892 432.022C-176.937 432.256 -176.997 432.569 -177.042 432.804C-177.169 435.013 -176.054 437.253 -174.61 437.771C-169.425 439.536 -164.105 441.215 -158.755 442.738C-157.296 443.178 -156.063 441.703 -155.973 439.38C-155.899 437.136 -157.081 434.94 -158.541 434.5L-158.473 434.457ZM-189.753 423.837C-194.998 421.766 -200.198 419.461 -205.277 417.148C-206.639 416.509 -207.903 417.522 -208.263 419.4C-208.293 419.557 -208.323 419.713 -208.353 419.87C-208.6 422.087 -207.621 424.413 -206.139 425.044C-200.969 427.506 -195.754 429.733 -190.404 431.873C-188.974 432.469 -187.583 431.099 -187.456 428.89C-187.262 426.638 -188.324 424.433 -189.806 423.802L-189.753 423.837ZM333.258 212.843C336.852 207.731 340.461 202.541 344.032 197.237C345.024 195.779 344.933 193.161 343.848 191.382C342.764 189.604 341.086 189.372 340.094 190.831C336.538 196.056 332.982 201.281 329.403 206.315C329.087 206.723 328.914 207.314 328.809 207.861C328.554 209.192 328.826 210.871 329.534 212.135C330.618 213.913 332.281 214.223 333.326 212.8L333.258 212.843ZM-127.082 441.711C-132.364 440.763 -137.616 439.658 -142.8 438.51C-143.997 438.245 -145.034 439.321 -145.35 440.964C-145.41 441.277 -145.485 441.668 -145.439 442.051C-145.461 444.33 -144.264 446.448 -142.789 446.809C-137.552 447.992 -132.3 449.097 -126.951 450.002C-125.461 450.285 -124.318 448.662 -124.349 446.348C-124.38 444.034 -125.593 441.994 -127.082 441.711ZM-220.659 409.407C-225.821 406.598 -230.953 403.632 -235.898 400.614C-237.267 399.705 -238.704 400.692 -239.109 402.805L-239.124 402.883C-239.529 404.996 -238.633 407.443 -237.196 408.309C-232.146 411.396 -226.961 414.397 -221.693 417.277C-220.241 418.065 -218.827 416.886 -218.542 414.782C-218.242 412.599 -219.154 410.23 -220.606 409.442L-220.659 409.407ZM-111.44 444.068C-112.599 443.916 -113.569 444.948 -113.869 446.513C-113.944 446.904 -114.034 447.374 -113.951 447.87C-113.852 450.141 -112.587 452.215 -111.135 452.385C-105.929 453.107 -100.624 453.629 -95.3052 454.073C-93.8381 454.165 -92.7329 452.429 -92.8845 450.123C-93.036 447.817 -94.316 445.821 -95.7831 445.729C-101.05 445.32 -106.271 444.677 -111.44 444.068ZM12.0917 438.481C11.1664 438.66 10.5048 439.632 10.2647 440.884C10.1296 441.588 10.0998 442.363 10.2431 443.163C10.6354 445.453 12.1108 447.049 13.5326 446.758C18.5502 445.679 23.6505 444.478 28.7131 443.163C30.1499 442.794 30.9163 440.656 30.4563 438.411C30.0113 436.086 28.521 434.568 27.1369 434.972C22.0743 436.286 17.0943 437.479 12.0767 438.559L12.0917 438.481ZM-49.1525 446.604C-50.1682 446.636 -50.9652 447.694 -51.2354 449.103C-51.3404 449.65 -51.3402 450.268 -51.2872 450.921C-51.0153 453.218 -49.6376 455.015 -48.2082 454.993C-43.0472 454.715 -37.8713 454.358 -32.6277 453.957C-31.1832 453.858 -30.2589 451.825 -30.5308 449.528C-30.8027 447.23 -32.248 445.477 -33.6924 445.576C-38.8834 446.012 -44.0066 446.404 -49.0999 446.639L-49.1525 446.604ZM-347.649 162.452C-346.284 155.332 -344.504 148.222 -342.431 141.13C-341.882 139.201 -342.508 136.581 -343.833 135.437C-345.21 134.258 -346.76 134.905 -347.308 136.834C-349.441 144.239 -351.281 151.662 -352.707 159.095C-353.112 161.208 -352.283 163.699 -350.914 164.608C-349.491 165.552 -348.017 164.678 -347.612 162.566L-347.649 162.452ZM-298.4 52.1601C-294.904 47.2478 -291.22 42.284 -287.378 37.425C-286.348 36.08 -286.319 33.4529 -287.336 31.6314C-288.352 29.8099 -290.053 29.3867 -291.083 30.7317C-295.007 35.7122 -298.707 40.7543 -302.27 45.7099C-302.586 46.1177 -302.759 46.7087 -302.864 47.2564C-303.119 48.5866 -302.848 50.2664 -302.14 51.5301C-301.056 53.3083 -299.393 53.6183 -298.348 52.1951L-298.4 52.1601ZM-345.86 255.906C-347.752 248.123 -349.215 240.271 -350.235 232.273C-350.507 229.976 -351.952 228.222 -353.397 228.322C-354.427 228.432 -355.156 229.447 -355.412 230.777C-355.532 231.403 -355.531 232.021 -355.478 232.673C-354.414 241.054 -352.845 249.593 -350.855 257.795C-350.327 259.997 -348.754 261.394 -347.408 260.877C-346.046 260.281 -345.385 258.074 -345.913 255.871L-345.86 255.906ZM-82.5621 450.801C-82.4105 453.106 -81.0629 455.059 -79.5808 455.073C-74.3896 455.255 -69.1306 455.394 -63.8944 455.342C-62.4649 455.321 -61.4501 453.436 -61.6694 451.174C-61.8736 448.833 -63.2512 447.036 -64.6807 447.058C-69.9169 447.11 -75.0705 447.041 -80.2468 446.78C-81.3678 446.742 -82.2174 447.765 -82.5026 449.252C-82.5927 449.722 -82.6451 450.304 -82.5771 450.879L-82.5621 450.801ZM-17.1905 452.12C-12.0749 451.459 -6.92927 450.64 -1.76863 449.744C-0.361856 449.531 0.509884 447.464 0.117592 445.174C-0.2747 442.885 -1.68237 441.245 -3.10416 441.536C-8.21212 442.468 -13.2901 443.243 -18.3907 443.826C-19.3686 443.971 -20.0829 444.908 -20.3531 446.316C-20.4732 446.942 -20.4879 447.638 -20.3822 448.326C-20.0576 450.658 -18.5973 452.333 -17.1905 452.12ZM-306.322 342.663C-305.457 340.944 -305.737 338.376 -306.971 336.763C-311.285 331.077 -315.328 325.218 -319.1 319.186C-320.184 317.407 -321.862 317.175 -322.869 318.712C-323.132 319.155 -323.343 319.632 -323.448 320.18C-323.718 321.588 -323.446 323.268 -322.686 324.567C-318.786 330.861 -314.547 336.938 -310.091 342.808C-308.909 344.386 -307.239 344.348 -306.374 342.628L-306.322 342.663ZM-249.254 396.247C-248.766 394.013 -249.572 391.714 -250.979 390.691C-256.044 387.064 -260.974 383.351 -265.685 379.43C-267.078 378.329 -268.575 379.011 -269.138 381.019C-269.153 381.097 -269.183 381.254 -269.198 381.332C-269.573 383.288 -268.887 385.596 -267.6 386.626C-262.784 390.618 -257.696 394.436 -252.578 398.098C-251.156 399.042 -249.697 398.246 -249.239 396.169L-249.254 396.247ZM-351.856 208.527C-351.972 200.776 -351.645 192.878 -350.919 185.068C-350.724 182.816 -351.719 180.568 -353.186 179.859C-354.495 179.254 -355.759 180.268 -356.119 182.146C-356.149 182.303 -356.179 182.459 -356.224 182.694C-356.973 190.929 -357.337 199.332 -357.243 207.509C-357.212 209.823 -356 211.863 -354.51 212.146C-353.02 212.43 -351.877 210.807 -351.909 208.492L-351.856 208.527ZM-278.749 372.61C-278.148 370.715 -278.706 368.052 -280.016 366.829C-284.795 362.334 -289.447 357.481 -293.805 352.648C-295.07 351.191 -296.68 351.533 -297.439 353.323C-297.499 353.636 -297.612 353.914 -297.672 354.227C-298.002 355.948 -297.512 358.038 -296.428 359.198C-291.927 364.215 -287.155 369.059 -282.232 373.738C-280.87 374.995 -279.282 374.461 -278.681 372.567L-278.749 372.61ZM-330.098 305.622C-328.977 304.425 -328.828 301.79 -329.83 299.89C-333.211 293.059 -336.291 285.898 -338.905 278.782C-339.689 276.674 -341.337 275.668 -342.585 276.603C-343.142 277.028 -343.585 277.792 -343.765 278.731C-343.961 279.748 -343.892 280.94 -343.463 282.107C-340.698 289.676 -337.452 297.211 -333.905 304.417C-332.971 306.36 -331.248 306.975 -330.166 305.665L-330.098 305.622ZM131.456 401.988C136.172 399.385 140.85 396.669 145.544 393.875C146.83 393.053 147.333 390.74 146.632 388.511C145.916 386.36 144.351 385.233 143.012 386.02C138.371 388.849 133.708 391.487 129.06 394.047C128.383 394.48 127.872 395.287 127.677 396.304C127.497 397.243 127.527 398.322 127.866 399.341C128.514 401.535 130.132 402.697 131.456 401.988ZM-318.585 84.629C-315.503 79.089 -312.233 73.4975 -308.805 68.0108C-307.866 66.5177 -308.01 63.8637 -309.094 62.0855C-310.193 60.3855 -311.886 60.2322 -312.826 61.7254C-316.337 67.3336 -319.689 73.0466 -322.854 78.7081C-323.049 79.1076 -323.192 79.5421 -323.282 80.0115C-323.567 81.4982 -323.221 83.4045 -322.325 84.6167C-321.158 86.2734 -319.488 86.2354 -318.585 84.629ZM155.581 379.632C155.401 380.571 155.469 381.763 155.808 382.782C156.524 384.933 158.157 386.017 159.443 385.195C164.046 382.253 168.611 379.197 173.191 376.063C174.477 375.241 174.89 372.78 174.122 370.594C173.406 368.443 171.758 367.437 170.457 368.338C165.929 371.507 161.379 374.484 156.829 377.462C156.219 377.851 155.761 378.693 155.581 379.632ZM58.7876 434.372C60.1867 433.889 60.9004 431.716 60.3878 429.436C59.8751 427.155 58.3698 425.714 56.9706 426.197C52.021 427.851 47.0714 429.505 42.1668 430.924C41.2942 431.139 40.6852 432.146 40.4601 433.319C40.31 434.102 40.3329 434.911 40.5139 435.825C40.9739 438.071 42.5169 439.625 43.916 439.142C48.8883 437.68 53.8907 436.061 58.8553 434.328L58.7876 434.372ZM70.0675 423.247C69.9174 424.03 69.9103 424.996 70.159 425.866C70.6867 428.069 72.2447 429.544 73.6062 428.949C78.4805 427.068 83.3698 425.109 88.2891 422.994C89.6505 422.399 90.2589 420.156 89.7312 417.954C89.1509 415.716 87.6155 414.432 86.2691 414.949C81.4174 417.021 76.5281 418.98 71.7215 420.817C70.8866 421.145 70.3603 422.031 70.1352 423.204L70.0675 423.247ZM-335.639 121.205C-333.249 114.941 -330.551 108.617 -327.628 102.354C-326.816 100.6 -327.148 97.9976 -328.398 96.4624C-329.648 94.9272 -331.28 95.0785 -332.092 96.8331C-335.098 103.217 -337.841 109.776 -340.328 116.24C-340.388 116.553 -340.486 116.753 -340.546 117.066C-340.876 118.787 -340.386 120.877 -339.25 122.072C-337.97 123.451 -336.345 123.03 -335.639 121.205ZM117.233 409.571C118.557 408.862 119.127 406.506 118.479 404.312C117.831 402.117 116.281 400.912 114.904 401.586C110.166 403.998 105.374 406.374 100.613 408.594C99.8309 408.957 99.3724 409.799 99.1623 410.895C98.9971 411.755 99.0428 412.756 99.2764 413.705C99.8568 415.942 101.46 417.183 102.821 416.587C107.635 414.402 112.427 412.026 117.233 409.571Z" fill="white"/>
<path d="M412.567 81.7528C421.144 66.4529 429.613 44.9065 427.242 41.4799C424.803 38.0966 412.419 54.0452 403.842 69.3451C403.038 70.7517 402.301 72.1149 401.564 73.4783C399.646 73.2632 395.568 72.8498 390.437 72.3544C390.452 72.2762 390.557 72.3461 390.64 72.2246L392.917 68.0912C393.195 67.5701 393.067 66.6911 392.653 66.0634L389.762 61.9392C389.348 61.3115 388.761 61.2746 388.483 61.7957L386.205 65.9291C386.205 65.9291 386.1 66.4767 386.04 66.7897L383.349 71.5308C378.978 71.0989 374.208 70.5784 369.543 70.1281L371.806 66.0732C372.084 65.5521 371.955 64.6729 371.541 64.0452L368.65 59.921C368.236 59.2932 367.65 59.2567 367.371 59.7777L365.094 63.9109C365.094 63.9109 364.989 64.4588 364.929 64.7717L362.32 69.3912C350.365 68.247 340.381 67.3529 340.11 67.526C339.366 68.002 336.133 74.3245 336.133 74.3245C335.329 75.7311 334.781 77.0427 334.924 77.2259C335.029 77.2958 336.006 75.9159 336.796 74.5875L359.761 83.6582C359.175 84.8568 358.897 85.9954 359.093 86.2136C359.379 86.5799 360.199 85.7125 361.003 84.3059L361.033 84.1495L365.616 85.9567C365.097 87.112 364.782 88.1374 365.015 88.4687C365.301 88.835 366.121 87.9679 366.925 86.5613L371.071 88.1669L373.721 90.4548C373.052 91.7749 372.623 93.0783 372.909 93.4446C373.195 93.8109 374.015 92.9436 374.819 91.5369L374.834 91.4588L380.201 95.9913C379.532 97.3114 379.171 98.5717 379.405 98.903C379.691 99.2694 380.51 98.402 381.315 96.9954L381.33 96.9173L386.237 101.057C380.554 111.486 378.382 115.689 374.135 123.278C369.873 130.946 366.152 138.885 363.199 145.921C356.721 145.326 343.742 143.944 343.742 143.944L341.081 147.91L357.105 162.517C356.602 164.212 356.264 165.663 356.054 166.759C354.445 170.189 353.544 172.414 353.724 172.71C353.958 173.041 355.221 171.41 357.07 168.58C357.695 168.112 358.567 167.28 359.635 166.049L370.75 189.834L372.892 185.169C372.892 185.169 370.332 163.535 369.244 153.727C373.108 148.442 377.476 142.08 381.987 135.283C387.317 125.766 389.7 121.703 394.676 113.098L397.809 120.294C397.005 121.701 396.547 123.161 396.833 123.527C397.066 123.858 397.803 123.113 398.578 121.863L402.042 129.808L402.027 129.886C401.223 131.293 400.764 132.753 401.051 133.119C401.284 133.45 402.074 132.739 402.795 131.454L404.527 135.427L406.035 141.808C405.231 143.215 404.773 144.675 405.059 145.041C405.292 145.373 405.879 144.792 406.54 143.82L408.168 150.81L408.138 150.967C407.281 152.339 406.876 153.834 407.109 154.165C407.343 154.496 407.997 153.872 408.673 152.822L416.996 188.072C416.259 189.436 415.448 191.19 415.538 191.338C415.681 191.521 416.41 190.506 417.215 189.1C417.215 189.1 420.808 183.37 421.048 182.118C421.138 181.648 419.401 165.941 417.285 147.248L419.894 142.628C419.894 142.628 420.322 142.56 420.42 142.36L422.698 138.227C422.976 137.706 422.848 136.827 422.434 136.199L419.543 132.075C419.129 131.447 418.542 131.411 418.264 131.932L416.001 135.986C415.155 128.633 414.324 121.201 413.508 114.308L416.199 109.568C416.199 109.568 416.628 109.499 416.726 109.3L419.003 105.166C419.281 104.645 419.153 103.766 418.739 103.138L415.848 99.0142C415.434 98.3865 414.847 98.3499 414.569 98.8709L412.291 103.004C412.291 103.004 412.246 103.239 412.231 103.317C411.317 95.3891 410.57 89.071 410.207 86.0077C410.944 84.6444 411.733 83.3158 412.537 81.9092L412.567 81.7528Z" fill="white"/>
</g>
</svg>
